<svg width="92" height="58" viewBox="0 0 92 58" fill="none" xmlns="http://www.w3.org/2000/svg">
<path d="M83.2535 0H8.74724C8.43688 0 8.12597 0 7.81615 0.00164205C7.55459 0.00383145 7.29358 0.00656821 7.03202 0.0136838C6.46229 0.0290096 5.88763 0.0629453 5.32503 0.163658C4.76081 0.26015 4.21414 0.440013 3.70303 0.697325C2.67552 1.21899 1.84035 2.05265 1.31773 3.0783C1.05949 3.58868 0.879282 4.13479 0.783095 4.69846C0.681103 5.26059 0.647655 5.83366 0.632301 6.40181C0.625618 6.66267 0.621597 6.92359 0.620237 7.18452C0.619141 7.49323 0.619141 7.80303 0.619141 8.11338V49.8861C0.619141 50.1964 0.619141 50.5057 0.620237 50.816C0.621882 51.0766 0.625172 51.3376 0.632301 51.5987C0.647655 52.1658 0.681652 52.7394 0.783095 53.301C0.879084 53.8646 1.05911 54.4107 1.31718 54.9212C1.57665 55.4309 1.91533 55.8964 2.32065 56.3005C2.72528 56.7052 3.19169 57.0433 3.70248 57.3021C4.22176 57.5665 4.75365 57.7345 5.32558 57.8369C5.88763 57.9371 6.46229 57.971 7.03202 57.9863C7.29358 57.9923 7.55459 57.9956 7.81615 57.9973C8.12597 57.9995 8.43688 57.9995 8.74724 57.9995H83.2535C83.5633 57.9995 83.8742 57.9995 84.184 57.9973C84.445 57.9962 84.706 57.9923 84.9687 57.9863C85.5373 57.971 86.112 57.9371 86.6757 57.8369C87.24 57.7403 87.7867 57.5601 88.2977 57.3021C89.3247 56.7798 90.1597 55.9463 90.683 54.9212C90.9478 54.4028 91.1156 53.8719 91.2171 53.301C91.3191 52.7394 91.352 52.1658 91.3673 51.5987C91.3744 51.3376 91.3783 51.0766 91.3794 50.816C91.3816 50.5057 91.3816 50.1964 91.3816 49.8861V8.11392C91.3816 7.80358 91.3816 7.49378 91.3794 7.18398C91.3783 6.92322 91.3743 6.66248 91.3673 6.40181C91.352 5.83366 91.3191 5.26059 91.2171 4.69846C91.1216 4.1347 90.9415 3.58851 90.683 3.0783C90.1601 2.05283 89.325 1.21924 88.2977 0.697325C87.7865 0.440278 87.2399 0.260603 86.6757 0.164205C86.112 0.0629453 85.5373 0.0295569 84.9687 0.0142311C84.7072 0.00760121 84.4456 0.00358711 84.184 0.0021894C83.8742 0 83.5633 0 83.2535 0Z" fill="black"/>
<path d="M83.2513 1.93286L84.1681 1.9345C84.416 1.93615 84.6644 1.93888 84.9139 1.94545C85.3487 1.95749 85.8565 1.98103 86.3302 2.06587C86.7415 2.13976 87.0869 2.25197 87.4181 2.42055C88.081 2.75693 88.6194 3.295 88.9557 3.95696C89.1235 4.28537 89.2354 4.62802 89.3094 5.04236C89.3938 5.5098 89.4174 6.01829 89.4289 6.45452C89.4361 6.70083 89.4393 6.94714 89.4399 7.19892C89.4426 7.5038 89.4426 7.80812 89.4426 8.11354V49.8862C89.4426 50.1917 89.4426 50.496 89.4404 50.8069C89.4393 51.0532 89.4361 51.2995 89.4295 51.5458C89.4174 51.9815 89.3938 52.49 89.3083 52.9629C89.2461 53.3391 89.1268 53.7036 88.9546 54.0439C88.6176 54.7061 88.0784 55.2442 87.4149 55.5803C87.0859 55.7478 86.7415 55.86 86.3341 55.9334C85.851 56.0193 85.3213 56.0429 84.9226 56.0538C84.672 56.0593 84.4225 56.0631 84.1665 56.0642C83.8621 56.0664 83.5562 56.0664 83.2513 56.0664H8.733C8.43141 56.0664 8.12982 56.0664 7.82275 56.0642C7.57597 56.0631 7.3292 56.0598 7.08248 56.0543C6.67452 56.0434 6.14481 56.0193 5.66556 55.9339C5.28665 55.8709 4.91948 55.7509 4.57655 55.5781C4.24761 55.4114 3.94738 55.1933 3.68714 54.9323C3.42608 54.6721 3.20805 54.3723 3.04119 54.0439C2.86887 53.7017 2.74944 53.3354 2.68696 52.9574C2.60142 52.4851 2.57729 51.9788 2.56632 51.5464C2.56013 51.2992 2.55647 51.052 2.55536 50.8047L2.55371 50.0784V7.92197L2.55481 7.19673C2.55594 6.94912 2.5596 6.70152 2.56577 6.45398C2.57784 6.02048 2.60142 5.51418 2.68751 5.03798C2.75011 4.66078 2.86954 4.29521 3.04174 3.95368C3.20843 3.62636 3.42558 3.32751 3.68878 3.06533C3.94965 2.80452 4.2502 2.58654 4.57929 2.41946C4.92138 2.2479 5.28739 2.12871 5.66501 2.06587C6.13933 1.98103 6.64765 1.95749 7.08303 1.94545C7.33088 1.93888 7.57928 1.93615 7.82549 1.9345L8.74506 1.93286H83.2513Z" fill="white"/>
<path d="M24.475 19.5787C25.2448 18.6181 25.7669 17.328 25.6292 16.01C24.5029 16.0658 23.1288 16.7517 22.3326 17.7134C21.6181 18.5366 20.9858 19.8803 21.1503 21.1431C22.4148 21.2525 23.6782 20.5125 24.475 19.5787Z" fill="black"/>
<path d="M25.6164 21.3888C23.7795 21.2793 22.2189 22.4287 21.3421 22.4287C20.4647 22.4287 19.1218 21.4435 17.6693 21.4703C15.7791 21.4977 14.0255 22.565 13.0659 24.2618C11.093 27.6554 12.545 32.691 14.4642 35.4551C15.3959 36.8235 16.5189 38.3287 17.9983 38.2745C19.3966 38.2198 19.9444 37.3714 21.6431 37.3714C23.3414 37.3714 23.8349 38.2745 25.3148 38.2472C26.8491 38.2198 27.8087 36.8788 28.7404 35.5104C29.8096 33.9505 30.2467 32.4452 30.2741 32.3631C30.2467 32.3358 27.3152 31.2132 27.2878 27.8469C27.2604 25.0281 29.5897 23.6871 29.6994 23.6044C28.3839 21.6624 26.3287 21.4435 25.6159 21.3888" fill="black"/>
<path d="M43.9237 17.5747C47.9145 17.5747 50.6941 20.3208 50.6941 24.3186C50.6941 28.3307 47.8575 31.091 43.8239 31.091H39.4053V38.1058H36.2129V17.5747H43.9237ZM39.4053 28.4161H43.0683C45.8484 28.4161 47.4298 26.9224 47.4298 24.3328C47.4298 21.7439 45.8478 20.2638 43.0825 20.2638H39.4053V28.4161Z" fill="black"/>
<path d="M51.4863 33.8513C51.4863 31.2191 53.496 29.7112 57.2017 29.4835L61.1783 29.2415V28.103C61.1783 26.4391 60.0811 25.5283 58.1284 25.5283C56.5174 25.5283 55.3483 26.3532 55.107 27.6192H52.2271C52.3132 24.9591 54.8214 23.0242 58.214 23.0242C61.8626 23.0242 64.243 24.9306 64.243 27.8901V38.1053H61.2929V35.6439H61.2216C60.3805 37.2515 58.5271 38.2613 56.5174 38.2613C53.553 38.2613 51.4863 36.4977 51.4863 33.8513ZM61.1783 32.5284V31.3756L57.6294 31.6033C55.6335 31.7314 54.5938 32.4709 54.5938 33.7654C54.5938 35.0177 55.6768 35.8289 57.3728 35.8289C59.5388 35.8289 61.1783 34.4485 61.1783 32.5284Z" fill="black"/>
<path d="M66.9564 43.5958V41.1349C67.1559 41.1628 67.6401 41.1913 67.8968 41.1913C69.3077 41.1913 70.106 40.5947 70.5908 39.0572L70.8759 38.1469L65.4736 23.2081H68.8087L72.5719 35.3297H72.6432L76.406 23.2081H79.656L74.0541 38.9006C72.771 42.5005 71.3031 43.6817 68.1962 43.6817C67.9538 43.6817 67.1697 43.6533 66.9564 43.5958Z" fill="black"/>
</svg>
