<svg width="92" height="58" viewBox="0 0 92 58" fill="none" xmlns="http://www.w3.org/2000/svg">
<path opacity="0.07" d="M84.7368 0H7.26316C3.14737 0 0 3.14167 0 7.25V50.75C0 54.8583 3.38947 58 7.26316 58H84.7368C88.8526 58 92 54.8583 92 50.75V7.25C92 3.14167 88.6105 0 84.7368 0Z" fill="black"/>
<path d="M84.7367 2.41669C87.3998 2.41669 89.5788 4.59169 89.5788 7.25002V50.75C89.5788 53.4084 87.3998 55.5834 84.7367 55.5834H7.263C4.59985 55.5834 2.4209 53.4084 2.4209 50.75V7.25002C2.4209 4.59169 4.59985 2.41669 7.263 2.41669H84.7367Z" fill="white"/>
<path d="M43.8025 28.9413V36.6747H41.3379V17.583H47.8529C48.6336 17.5698 49.4091 17.7108 50.135 17.9978C50.8608 18.2848 51.5227 18.7121 52.0825 19.2553C52.6128 19.7493 53.0404 20.3427 53.3408 21.0017C53.6412 21.6607 53.8086 22.3723 53.8333 23.0959C53.858 23.8195 53.7396 24.5409 53.4849 25.2187C53.2302 25.8966 52.8442 26.5178 52.3488 27.0467L52.0825 27.327C50.9446 28.4072 49.4242 28.9945 47.8529 28.9558L43.8025 28.9413ZM43.8025 19.9223V26.66H47.9135C48.8262 26.689 49.7075 26.3338 50.3466 25.6837C50.8038 25.208 51.1108 24.6086 51.2294 23.9602C51.348 23.3117 51.273 22.6428 51.0137 22.0365C50.7544 21.4303 50.3223 20.9135 49.7711 20.5505C49.2198 20.1875 48.5739 19.9942 47.9135 19.9948L43.8025 19.9223ZM59.5006 23.18C61.0743 23.1075 62.6141 23.6343 63.8053 24.6614C64.8826 25.7006 65.4564 27.1506 65.3789 28.6465V36.7037H63.0329V34.8525H62.9143C62.4936 35.5468 61.8987 36.1196 61.1883 36.5141C60.478 36.9087 59.6768 37.1115 58.8639 37.1024C57.5369 37.1453 56.2429 36.6851 55.242 35.8143C54.7678 35.4282 54.3877 34.9395 54.1306 34.3852C53.8735 33.8309 53.7461 33.2254 53.7579 32.6147C53.7299 31.9974 53.85 31.3825 54.1082 30.8209C54.3663 30.2593 54.755 29.7674 55.242 29.386C56.4366 28.5285 57.8824 28.0907 59.3529 28.1414C60.6046 28.0931 61.8466 28.3662 62.9603 28.9413V28.4387C62.9685 28.0231 62.8818 27.6111 62.7069 27.2338C62.532 26.8566 62.2734 26.524 61.9507 26.2612C61.3027 25.6732 60.4537 25.355 59.5781 25.3719C58.9421 25.3659 58.3152 25.5219 57.7564 25.8251C57.1976 26.1283 56.7255 26.5687 56.3847 27.1047L54.2179 25.7417C54.8063 24.9002 55.6006 24.223 56.5253 23.7746C57.45 23.3262 58.4743 23.1215 59.5006 23.18ZM56.3847 32.6727C56.3789 32.9857 56.4503 33.2953 56.5925 33.5743C56.7348 33.8533 56.9437 34.093 57.2006 34.2725C57.7405 34.6978 58.4112 34.9226 59.1012 34.9081C60.1398 34.9057 61.1348 34.4972 61.8757 33.7674C62.6141 33.0763 63.0329 32.112 63.0329 31.1018C62.1009 30.4404 60.9684 30.1211 59.8275 30.198C58.9416 30.1632 58.0678 30.4121 57.3338 30.9085C57.0431 31.1026 56.8045 31.365 56.6391 31.6726C56.4736 31.9801 56.3863 32.3236 56.3847 32.6727ZM78.8666 23.6102L70.6593 42.436H68.122L71.2234 35.8433L65.8389 23.6102H68.5094L72.4121 32.9989L76.2107 23.6102H78.8666Z" fill="#5F6368"/>
<path d="M33.8609 27.2703C33.8609 26.5259 33.8028 25.7816 33.6842 25.0469H23.2979V29.2689H29.2319C29.111 29.9398 28.8558 30.5795 28.4814 31.1497C28.107 31.7198 27.6211 32.2087 27.0529 32.5869V35.3274H30.5973C31.675 34.2866 32.5223 33.0318 33.0844 31.644C33.6465 30.2563 33.911 28.7663 33.8609 27.2703Z" fill="#4285F4"/>
<path d="M23.3101 37.9923C25.9886 38.0657 28.5944 37.1177 30.5975 35.3412L27.0482 32.5862C26.1954 33.132 25.2291 33.4765 24.2229 33.5935C23.2166 33.7105 22.1969 33.5969 21.2413 33.2614C20.2856 32.9258 19.4192 32.3772 18.7079 31.6572C17.9966 30.9372 17.4591 30.0647 17.1364 29.1062H13.5V31.9337C14.4099 33.7535 15.8098 35.2844 17.5426 36.3545C19.2753 37.4246 21.2725 37.9917 23.3101 37.9923Z" fill="#34A853"/>
<path d="M17.1389 29.1197C16.6784 27.7598 16.6784 26.2866 17.1389 24.9267V22.0992H13.5025C12.7273 23.6253 12.3232 25.3122 12.3232 27.0232C12.3232 28.7342 12.7273 30.4211 13.5025 31.9472L17.1389 29.1197Z" fill="#FBBC04"/>
<path d="M23.3101 20.3971C24.8765 20.3685 26.3908 20.9592 27.5227 22.0404L30.6701 18.9157C28.6633 17.0355 26.0015 16.01 23.2496 16.0568C21.224 16.0669 19.2409 16.6368 17.52 17.7032C15.7991 18.7696 14.4077 20.2909 13.5 22.0984L17.1364 24.9283C17.5616 23.6235 18.3859 22.4846 19.4933 21.6718C20.6008 20.859 21.9356 20.4132 23.3101 20.3971Z" fill="#EA4335"/>
</svg>
