<svg width="92" height="58" viewBox="0 0 92 58" fill="none" xmlns="http://www.w3.org/2000/svg">
<path opacity="0.07" d="M84.7368 0H7.26316C3.14737 0 0 3.14167 0 7.25V50.75C0 54.8583 3.38947 58 7.26316 58H84.7368C88.8526 58 92 54.8583 92 50.75V7.25C92 3.14167 88.6105 0 84.7368 0Z" fill="black"/>
<path d="M86.8892 0C89.7 0 92 2.37317 92 5.27317V52.7268C92 55.6268 89.7 58 86.8892 58H5.10842C2.3 58 0 55.6268 0 52.7268V5.27317C0 2.37317 2.3 0 5.11084 0H86.8892Z" fill="#5A31F4"/>
<path d="M22.6344 27.4727C20.1722 26.9338 19.0754 26.7235 19.0754 25.7689C19.0754 24.8699 19.8163 24.4204 21.3028 24.4204C22.6102 24.4204 23.5641 24.9956 24.2686 26.1218C24.2934 26.1636 24.3333 26.1943 24.3801 26.2078C24.4269 26.2213 24.4771 26.2164 24.5204 26.1943L27.2949 24.7829C27.3185 24.7703 27.3394 24.7531 27.3562 24.7323C27.3729 24.7114 27.3853 24.6874 27.3925 24.6617C27.3998 24.6359 27.4017 24.609 27.3983 24.5825C27.3948 24.556 27.386 24.5304 27.3724 24.5074C26.2224 22.4992 24.0967 21.3996 21.2956 21.3996C17.6156 21.3996 15.3301 23.2242 15.3301 26.1266C15.3301 29.2078 18.1143 29.986 20.5838 30.5249C23.0532 31.0614 24.1524 31.2741 24.1524 32.2287C24.1524 33.1857 23.3486 33.6352 21.7483 33.6352C20.2666 33.6352 19.1699 32.9537 18.5041 31.6293C18.4808 31.584 18.4405 31.5497 18.392 31.5339C18.3435 31.518 18.2907 31.5219 18.245 31.5448L15.4778 32.9223C15.4308 32.9465 15.3953 32.9883 15.379 33.0385C15.3627 33.0887 15.3668 33.1433 15.3906 33.1905C16.4898 35.4138 18.7413 36.6632 21.7507 36.6632C25.5832 36.6632 27.8978 34.8701 27.8978 31.8783C27.8978 28.8864 25.1014 28.0164 22.6368 27.4799L22.6344 27.4727ZM37.4997 21.3996C35.926 21.3996 34.5363 21.9603 33.5388 22.9608C33.5251 22.9752 33.5073 22.9851 33.4878 22.9891C33.4683 22.9931 33.4481 22.991 33.4298 22.983C33.4115 22.9751 33.3962 22.9617 33.3858 22.9448C33.3754 22.9278 33.3705 22.9081 33.3718 22.8882V16.5082C33.3721 16.4827 33.3673 16.4573 33.3577 16.4335C33.3481 16.4098 33.3339 16.3882 33.3159 16.37C33.2979 16.3518 33.2764 16.3373 33.2528 16.3274C33.2291 16.3176 33.2037 16.3125 33.1781 16.3125H29.7039C29.678 16.3125 29.6524 16.3176 29.6286 16.3277C29.6048 16.3377 29.5832 16.3524 29.5652 16.3708C29.5471 16.3893 29.533 16.4112 29.5235 16.4352C29.5141 16.4592 29.5095 16.4849 29.5102 16.5107V36.3128C29.5095 36.3386 29.5141 36.3643 29.5235 36.3883C29.533 36.4123 29.5471 36.4342 29.5652 36.4527C29.5832 36.4711 29.6048 36.4858 29.6286 36.4958C29.6524 36.5059 29.678 36.511 29.7039 36.511H33.1732C33.1993 36.5113 33.2251 36.5064 33.2492 36.4965C33.2733 36.4867 33.2952 36.472 33.3135 36.4535C33.3318 36.435 33.3462 36.413 33.3558 36.3889C33.3654 36.3647 33.37 36.3388 33.3693 36.3128V27.6273C33.3693 25.9478 34.6477 24.6621 36.369 24.6621C38.088 24.6621 39.3372 25.9212 39.3372 27.6273V36.3128C39.3366 36.3388 39.3412 36.3647 39.3508 36.3889C39.3604 36.413 39.3748 36.435 39.3931 36.4535C39.4114 36.472 39.4332 36.4867 39.4573 36.4965C39.4814 36.5064 39.5073 36.5113 39.5333 36.511H43.0027C43.0288 36.5113 43.0546 36.5064 43.0787 36.4965C43.1028 36.4867 43.1247 36.472 43.143 36.4535C43.1613 36.435 43.1757 36.413 43.1853 36.3889C43.1949 36.3647 43.1995 36.3388 43.1988 36.3128V27.6273C43.1988 23.9782 40.8262 21.3996 37.4997 21.3996ZM50.2417 20.8317C48.3581 20.8317 46.5931 21.4117 45.3269 22.2527C45.2845 22.28 45.2541 22.3225 45.242 22.3715C45.2298 22.4204 45.2368 22.4721 45.2616 22.5161L46.7917 25.1454C46.8042 25.1678 46.8211 25.1874 46.8414 25.2032C46.8616 25.219 46.8848 25.2306 46.9096 25.2373C46.9344 25.2441 46.9603 25.2458 46.9857 25.2425C47.0112 25.2392 47.0358 25.2308 47.058 25.2179C48.0186 24.6327 49.1236 24.3264 50.2489 24.3334C53.2752 24.3334 55.5026 26.4867 55.5026 29.3311C55.5026 31.755 53.7207 33.5482 51.4619 33.5482C49.6219 33.5482 48.3436 32.4703 48.3436 30.9454C48.3436 30.073 48.7116 29.3577 49.6703 28.8526C49.6941 28.8405 49.7151 28.8236 49.7321 28.803C49.749 28.7825 49.7615 28.7586 49.7688 28.7329C49.7761 28.7073 49.778 28.6804 49.7744 28.654C49.7707 28.6276 49.7617 28.6022 49.7478 28.5795L48.3048 26.1193C48.2819 26.0793 48.2454 26.0488 48.2018 26.0333C48.1583 26.0178 48.1107 26.0183 48.0676 26.0347C46.1331 26.7573 44.7773 28.4949 44.7773 30.8294C44.7773 34.3577 47.5664 36.9919 51.4594 36.9919C56.0038 36.9919 59.2722 33.8188 59.2722 29.2707C59.2722 24.3938 55.4711 20.8317 50.2417 20.8317ZM69.4212 21.3706C67.6684 21.3706 66.0971 22.0231 64.9544 23.1734C64.8914 23.2387 64.7873 23.1903 64.7873 23.1033V21.721C64.788 21.6952 64.7835 21.6695 64.774 21.6455C64.7646 21.6215 64.7504 21.5996 64.7324 21.5812C64.7143 21.5627 64.6927 21.548 64.6689 21.538C64.6451 21.528 64.6195 21.5228 64.5937 21.5228H61.2114C61.1856 21.5228 61.16 21.528 61.1362 21.538C61.1124 21.548 61.0908 21.5627 61.0728 21.5812C61.0547 21.5996 61.0405 21.6215 61.0311 21.6455C61.0216 21.6695 61.0171 21.6952 61.0178 21.721V41.4942C61.0174 41.5198 61.0222 41.5452 61.0318 41.5689C61.0414 41.5926 61.0556 41.6142 61.0736 41.6324C61.0916 41.6507 61.1131 41.6651 61.1368 41.675C61.1604 41.6848 61.1858 41.6899 61.2114 41.6899H64.6808C64.7067 41.6902 64.7323 41.6854 64.7562 41.6757C64.7802 41.666 64.8019 41.6516 64.8202 41.6333C64.8385 41.6151 64.8529 41.5934 64.8627 41.5695C64.8724 41.5456 64.8772 41.52 64.8769 41.4942V35.0103C64.8769 34.9233 64.981 34.8797 65.044 34.9377C66.23 36.0439 67.7982 36.65 69.4212 36.6294C73.4934 36.6294 76.6674 33.3113 76.6674 29C76.6674 24.6887 73.4886 21.3706 69.4212 21.3706ZM68.7651 33.2823C66.4506 33.2823 64.6953 31.4263 64.6953 28.9734C64.6953 26.5205 66.4458 24.6645 68.7651 24.6645C71.0845 24.6645 72.8325 26.4891 72.8325 28.9734C72.8325 31.4553 71.1087 33.2823 68.7651 33.2823Z" fill="white"/>
</svg>
