<svg width="24" height="25" viewBox="0 0 24 25" fill="none" xmlns="http://www.w3.org/2000/svg">
<path d="M23.3631 9.08405L15.9851 7.95705L12.6781 0.913055C12.4311 0.387055 11.5681 0.387055 11.3211 0.913055L8.0151 7.95705L0.637095 9.08405C0.500872 9.10498 0.373049 9.16304 0.267662 9.25185C0.162274 9.34067 0.0833962 9.45681 0.0396894 9.58751C-0.0040174 9.71822 -0.0108633 9.85844 0.0199035 9.99279C0.0506702 10.1271 0.11786 10.2504 0.214095 10.3491L5.5741 15.8431L4.3071 23.6101C4.28447 23.749 4.30139 23.8914 4.35591 24.0212C4.41043 24.1509 4.50036 24.2627 4.61542 24.3438C4.73047 24.4248 4.86601 24.4719 5.00654 24.4795C5.14707 24.4872 5.28692 24.4551 5.4101 24.3871L12.0001 20.7451L18.5901 24.3881C18.7133 24.4561 18.8531 24.4882 18.9937 24.4805C19.1342 24.4729 19.2697 24.4258 19.3848 24.3448C19.4998 24.2637 19.5898 24.1519 19.6443 24.0222C19.6988 23.8924 19.7157 23.75 19.6931 23.6111L18.4261 15.8441L23.7861 10.3501C23.8826 10.2514 23.9501 10.1281 23.981 9.9936C24.0119 9.85911 24.0051 9.7187 23.9614 9.58781C23.9177 9.45693 23.8387 9.34064 23.7331 9.25176C23.6276 9.16288 23.4995 9.10485 23.3631 9.08405Z" fill="#FFC107"/>
</svg>
